<?xml version="1.0" encoding="UTF-8"?>
<svg id="Calque_5" data-name="Calque 5" xmlns="http://www.w3.org/2000/svg" viewBox="0 0 32 32">
  <defs>
    <style>
      .cls-1 {
        fill: #ff4d4d;
        stroke: #000;
        stroke-width: .75px;
      }

      .cls-1, .cls-2 {
        stroke-linecap: round;
        stroke-miterlimit: 10;
      }

      .cls-2 {
        fill: #f7f7f7;
        opacity: .49;
        stroke: #f7f7f7;
        stroke-width: .25px;
      }
    </style>
  </defs>
  <path class="cls-1" d="M22.3,4.42h-12.6c-.3,0-.57.16-.72.42L2.68,15.75c-.15.26-.15.58,0,.83l6.3,10.91c.15.26.42.42.72.42h12.6c.3,0,.57-.16.72-.42l6.3-10.91c.15-.26.15-.58,0-.83l-6.3-10.91c-.15-.26-.42-.42-.72-.42Z"/>
  <path class="cls-1" d="M19.16,9.99h-6.37c-.21,0-.41.11-.51.29l-3.18,5.51c-.11.18-.11.41,0,.59l3.18,5.51c.11.18.3.29.51.29h6.37c.21,0,.41-.11.51-.29l3.18-5.51c.11-.18.11-.41,0-.59l-3.18-5.51c-.11-.18-.3-.29-.51-.29Z"/>
  <line class="cls-1" x1="19.39" y1="10.05" x2="22.65" y2="4.5"/>
  <line class="cls-1" x1="22.93" y1="16.1" x2="29.44" y2="16.1"/>
  <line class="cls-1" x1="9.02" y1="16.1" x2="2.56" y2="16.1"/>
  <line class="cls-1" x1="12.55" y1="10.05" x2="9.37" y2="4.71"/>
  <line class="cls-1" x1="12.55" y1="22.2" x2="9.24" y2="27.77"/>
  <line class="cls-1" x1="19.39" y1="22.2" x2="22.65" y2="27.77"/>
  <rect class="cls-2" x="20.43" y="10.05" width="8.13" height="1.03" rx=".43" ry=".43" transform="translate(21.4 -15.94) rotate(60)"/>
  <rect class="cls-2" x="16.92" y="5.48" width="3.54" height=".94" rx=".44" ry=".44" transform="translate(37.38 11.9) rotate(180)"/>
</svg>